<?xml version="1.0" encoding="UTF-8" standalone="no"?>
<svg width="73.025mm" height="85.3722mm"
 viewBox="0 0 207 242"
 xmlns="http://www.w3.org/2000/svg" xmlns:xlink="http://www.w3.org/1999/xlink"  version="1.2" baseProfile="tiny">
<title>Qt SVG Document</title>
<desc>MATLAB, The MathWorks, Inc. Version 25.2.0.3042426 R2025b Update 1</desc>
<defs>
</defs>
<g fill="none" stroke="black" stroke-width="1" fill-rule="evenodd" stroke-linecap="square" stroke-linejoin="bevel" >

<g fill="#ffffff" fill-opacity="1" stroke="none" transform="matrix(0.3,0,0,0.3,-0.989997,-15.75)"
font-family="MS Shell Dlg 2" font-size="8.1" font-weight="400" font-style="normal" 
>
<path vector-effect="none" fill-rule="evenodd" d="M2,51 L690,51 L690,858 L2,858 L2,51"/>
</g>

<g fill="#ffffff" fill-opacity="1" stroke="none" transform="matrix(3e-05,0,0,3e-05,-0.989997,-15.75)"
font-family="MS Shell Dlg 2" font-size="8.1" font-weight="400" font-style="normal" 
>
<path vector-effect="none" fill-rule="evenodd" d="M1.4e+06,710000 L1.4e+06,8.41e+06 L6.83e+06,8.41e+06 L6.83e+06,710000 L1.4e+06,710000"/>
</g>

<g fill="#000000" fill-opacity="1" stroke="#000000" stroke-opacity="1" stroke-width="4" stroke-linecap="square" stroke-linejoin="round" transform="matrix(0.3,0,0,0.3,-0.989997,-15.75)"
font-family="MS Shell Dlg 2" font-size="8.1" font-weight="400" font-style="normal" 
>
<polyline fill="none" vector-effect="none" points="140,841 683,841 " />
<polyline fill="none" vector-effect="none" points="411.5,848.7 411.5,841 " />
</g>

<g fill="#000000" fill-opacity="1" stroke="#000000" stroke-opacity="1" stroke-width="1" stroke-linecap="square" stroke-linejoin="bevel" transform="matrix(0,-0.3,0.3,0,10.2,198.6)"
font-family="Arial" font-size="40" font-weight="400" font-style="normal" 
>
<text fill="#000000" fill-opacity="1" stroke="none" xml:space="preserve" x="0" y="0" font-family="Arial" font-size="40" font-weight="400" font-style="normal" 
 >% of color-biased assemblies</text>
</g>

<g fill="#000000" fill-opacity="1" stroke="#000000" stroke-opacity="1" stroke-width="4" stroke-linecap="square" stroke-linejoin="round" transform="matrix(0.3,0,0,0.3,-0.989997,-15.75)"
font-family="Arial" font-size="40" font-weight="400" font-style="normal" 
>
<polyline fill="none" vector-effect="none" points="140,841 140,71 " />
<polyline fill="none" vector-effect="none" points="132.3,841 140,841 " />
<polyline fill="none" vector-effect="none" points="132.3,764 140,764 " />
<polyline fill="none" vector-effect="none" points="132.3,687 140,687 " />
<polyline fill="none" vector-effect="none" points="132.3,610 140,610 " />
<polyline fill="none" vector-effect="none" points="132.3,533 140,533 " />
<polyline fill="none" vector-effect="none" points="132.3,456 140,456 " />
<polyline fill="none" vector-effect="none" points="132.3,379 140,379 " />
<polyline fill="none" vector-effect="none" points="132.3,302 140,302 " />
<polyline fill="none" vector-effect="none" points="132.3,225 140,225 " />
<polyline fill="none" vector-effect="none" points="132.3,148 140,148 " />
<polyline fill="none" vector-effect="none" points="132.3,71 140,71 " />
</g>

<g fill="#000000" fill-opacity="1" stroke="#000000" stroke-opacity="1" stroke-width="1" stroke-linecap="square" stroke-linejoin="bevel" transform="matrix(0.3,0,0,0.3,28.5,240.3)"
font-family="Arial" font-size="36" font-weight="400" font-style="normal" 
>
<text fill="#000000" fill-opacity="1" stroke="none" xml:space="preserve" x="0" y="0" font-family="Arial" font-size="36" font-weight="400" font-style="normal" 
 >0</text>
</g>

<g fill="#000000" fill-opacity="1" stroke="#000000" stroke-opacity="1" stroke-width="1" stroke-linecap="square" stroke-linejoin="bevel" transform="matrix(0.3,0,0,0.3,22.5,217.2)"
font-family="Arial" font-size="36" font-weight="400" font-style="normal" 
>
<text fill="#000000" fill-opacity="1" stroke="none" xml:space="preserve" x="0" y="0" font-family="Arial" font-size="36" font-weight="400" font-style="normal" 
 >10</text>
</g>

<g fill="#000000" fill-opacity="1" stroke="#000000" stroke-opacity="1" stroke-width="1" stroke-linecap="square" stroke-linejoin="bevel" transform="matrix(0.3,0,0,0.3,22.5,194.1)"
font-family="Arial" font-size="36" font-weight="400" font-style="normal" 
>
<text fill="#000000" fill-opacity="1" stroke="none" xml:space="preserve" x="0" y="0" font-family="Arial" font-size="36" font-weight="400" font-style="normal" 
 >20</text>
</g>

<g fill="#000000" fill-opacity="1" stroke="#000000" stroke-opacity="1" stroke-width="1" stroke-linecap="square" stroke-linejoin="bevel" transform="matrix(0.3,0,0,0.3,22.5,171)"
font-family="Arial" font-size="36" font-weight="400" font-style="normal" 
>
<text fill="#000000" fill-opacity="1" stroke="none" xml:space="preserve" x="0" y="0" font-family="Arial" font-size="36" font-weight="400" font-style="normal" 
 >30</text>
</g>

<g fill="#000000" fill-opacity="1" stroke="#000000" stroke-opacity="1" stroke-width="1" stroke-linecap="square" stroke-linejoin="bevel" transform="matrix(0.3,0,0,0.3,22.5,147.9)"
font-family="Arial" font-size="36" font-weight="400" font-style="normal" 
>
<text fill="#000000" fill-opacity="1" stroke="none" xml:space="preserve" x="0" y="0" font-family="Arial" font-size="36" font-weight="400" font-style="normal" 
 >40</text>
</g>

<g fill="#000000" fill-opacity="1" stroke="#000000" stroke-opacity="1" stroke-width="1" stroke-linecap="square" stroke-linejoin="bevel" transform="matrix(0.3,0,0,0.3,22.5,124.8)"
font-family="Arial" font-size="36" font-weight="400" font-style="normal" 
>
<text fill="#000000" fill-opacity="1" stroke="none" xml:space="preserve" x="0" y="0" font-family="Arial" font-size="36" font-weight="400" font-style="normal" 
 >50</text>
</g>

<g fill="#000000" fill-opacity="1" stroke="#000000" stroke-opacity="1" stroke-width="1" stroke-linecap="square" stroke-linejoin="bevel" transform="matrix(0.3,0,0,0.3,22.5,101.7)"
font-family="Arial" font-size="36" font-weight="400" font-style="normal" 
>
<text fill="#000000" fill-opacity="1" stroke="none" xml:space="preserve" x="0" y="0" font-family="Arial" font-size="36" font-weight="400" font-style="normal" 
 >60</text>
</g>

<g fill="#000000" fill-opacity="1" stroke="#000000" stroke-opacity="1" stroke-width="1" stroke-linecap="square" stroke-linejoin="bevel" transform="matrix(0.3,0,0,0.3,22.5,78.6)"
font-family="Arial" font-size="36" font-weight="400" font-style="normal" 
>
<text fill="#000000" fill-opacity="1" stroke="none" xml:space="preserve" x="0" y="0" font-family="Arial" font-size="36" font-weight="400" font-style="normal" 
 >70</text>
</g>

<g fill="#000000" fill-opacity="1" stroke="#000000" stroke-opacity="1" stroke-width="1" stroke-linecap="square" stroke-linejoin="bevel" transform="matrix(0.3,0,0,0.3,22.5,55.5)"
font-family="Arial" font-size="36" font-weight="400" font-style="normal" 
>
<text fill="#000000" fill-opacity="1" stroke="none" xml:space="preserve" x="0" y="0" font-family="Arial" font-size="36" font-weight="400" font-style="normal" 
 >80</text>
</g>

<g fill="#000000" fill-opacity="1" stroke="#000000" stroke-opacity="1" stroke-width="1" stroke-linecap="square" stroke-linejoin="bevel" transform="matrix(0.3,0,0,0.3,22.5,32.4)"
font-family="Arial" font-size="36" font-weight="400" font-style="normal" 
>
<text fill="#000000" fill-opacity="1" stroke="none" xml:space="preserve" x="0" y="0" font-family="Arial" font-size="36" font-weight="400" font-style="normal" 
 >90</text>
</g>

<g fill="#000000" fill-opacity="1" stroke="#000000" stroke-opacity="1" stroke-width="1" stroke-linecap="square" stroke-linejoin="bevel" transform="matrix(0.3,0,0,0.3,16.5,9.3)"
font-family="Arial" font-size="36" font-weight="400" font-style="normal" 
>
<text fill="#000000" fill-opacity="1" stroke="none" xml:space="preserve" x="0" y="0" font-family="Arial" font-size="36" font-weight="400" font-style="normal" 
 >100</text>
</g>

<g fill="#d9521a" fill-opacity="0.2" stroke="none" transform="matrix(3e-05,0,0,3e-05,-0.989997,-15.75)"
font-family="Arial" font-size="36" font-weight="400" font-style="normal" 
>
<path vector-effect="none" fill-rule="evenodd" d="M2.7575e+06,6.43609e+06 L5.4725e+06,6.43609e+06 L5.4725e+06,5.00483e+06 L2.7575e+06,5.00483e+06 L2.7575e+06,6.43609e+06"/>
</g>

<g fill="#212121" fill-opacity="1" stroke="#212121" stroke-opacity="1" stroke-width="3.33333" stroke-linecap="butt" stroke-linejoin="round" transform="matrix(0.3,0,0,0.3,-0.989997,-15.75)"
font-family="Arial" font-size="36" font-weight="400" font-style="normal" 
>
<polyline fill="none" vector-effect="none" points="411.5,805.776 411.5,643.609 " />
<polyline fill="none" vector-effect="none" points="411.5,500.483 411.5,298.317 " />
<polyline fill="none" vector-effect="none" points="343.625,805.776 479.375,805.776 " />
<polyline fill="none" vector-effect="none" points="343.625,298.317 479.375,298.317 " />
</g>

<g fill="#d9521a" fill-opacity="1" stroke="#d9521a" stroke-opacity="1" stroke-width="3.33333" stroke-linecap="butt" stroke-linejoin="round" transform="matrix(0.3,0,0,0.3,-0.989997,-15.75)"
font-family="Arial" font-size="36" font-weight="400" font-style="normal" 
>
<polyline fill="none" vector-effect="none" points="275.75,545.818 547.25,545.818 " />
</g>

<g fill="none" stroke="#d9521a" stroke-opacity="1" stroke-width="3.33333" stroke-linecap="butt" stroke-linejoin="miter" stroke-miterlimit="2" transform="matrix(0.3,0,0,0.3,-0.989997,-15.75)"
font-family="Arial" font-size="36" font-weight="400" font-style="normal" 
>
<path vector-effect="none" fill-rule="evenodd" d="M275.75,643.609 L547.25,643.609 L547.25,500.483 L275.75,500.483 L275.75,643.609"/>
</g>

<g fill="#ad4114" fill-opacity="1" stroke="none" transform="matrix(0.3,0,0,0.3,-0.989997,-15.75)"
font-family="Arial" font-size="36" font-weight="400" font-style="normal" 
>
<circle cx="425.774" cy="414.153" r="8.33333"/>
<circle cx="528.815" cy="519.308" r="8.33333"/>
<circle cx="455.653" cy="381.112" r="8.33333"/>
<circle cx="416.677" cy="805.776" r="8.33333"/>
<circle cx="232.544" cy="623.389" r="8.33333"/>
<circle cx="311.023" cy="544.243" r="8.33333"/>
<circle cx="477.329" cy="667.962" r="8.33333"/>
<circle cx="499.169" cy="718.873" r="8.33333"/>
<circle cx="319.019" cy="500.232" r="8.33333"/>
<circle cx="312.857" cy="500.733" r="8.33333"/>
<circle cx="228.521" cy="538.076" r="8.33333"/>
<circle cx="417.802" cy="525.841" r="8.33333"/>
<circle cx="515.909" cy="672.05" r="8.33333"/>
<circle cx="429.108" cy="628.983" r="8.33333"/>
<circle cx="176.518" cy="583.821" r="8.33333"/>
<circle cx="599.403" cy="650.944" r="8.33333"/>
<circle cx="243.894" cy="533.168" r="8.33333"/>
<circle cx="411.736" cy="298.317" r="8.33333"/>
<circle cx="588.992" cy="627.198" r="8.33333"/>
<circle cx="411.5" cy="496.72" r="8.33333"/>
<circle cx="309.13" cy="690.976" r="8.33333"/>
<circle cx="416.505" cy="416.781" r="8.33333"/>
<circle cx="335.496" cy="683.436" r="8.33333"/>
<circle cx="481.851" cy="547.393" r="8.33333"/>
<circle cx="404.114" cy="642.948" r="8.33333"/>
<circle cx="390.447" cy="512.362" r="8.33333"/>
<circle cx="171.077" cy="570.189" r="8.33333"/>
<circle cx="234.775" cy="576.581" r="8.33333"/>
<circle cx="436.994" cy="230.88" r="8.33333"/>
<circle cx="565.435" cy="644.27" r="8.33333"/>
<circle cx="409.316" cy="576.915" r="8.33333"/>
<circle cx="376.914" cy="261.611" r="8.33333"/>
<circle cx="275.07" cy="703.943" r="8.33333"/>
<circle cx="327.792" cy="507.629" r="8.33333"/>
<circle cx="503.458" cy="695.831" r="8.33333"/>
<circle cx="324.061" cy="452.461" r="8.33333"/>
<circle cx="284.97" cy="533.67" r="8.33333"/>
<circle cx="433.88" cy="496.18" r="8.33333"/>
<circle cx="542.101" cy="603.708" r="8.33333"/>
<circle cx="539.935" cy="543.18" r="8.33333"/>
</g>
</g>
</svg>
